<svg xmlns="http://www.w3.org/2000/svg" xmlns:xlink="http://www.w3.org/1999/xlink" width="375" viewBox="0 0 375 375" height="375" version="1.0"><defs><clipPath id="b"><path d="M 109.835938 99.890625 L 259.835938 99.890625 L 259.835938 229.640625 L 109.835938 229.640625 Z M 109.835938 99.890625"/></clipPath><clipPath id="e"><path d="M 0.0390625 0.839844 L 47.320312 0.839844 L 47.320312 105.960938 L 0.0390625 105.960938 Z M 0.0390625 0.839844"/></clipPath><clipPath id="d"><path d="M0 0H48V106H0z"/></clipPath><clipPath id="h"><path d="M 0.0390625 0.761719 L 28.839844 0.761719 L 28.839844 109 L 0.0390625 109 Z M 0.0390625 0.761719"/></clipPath><clipPath id="g"><path d="M0 0H29V109H0z"/></clipPath><clipPath id="j"><path d="M0 0H11V108H0z"/></clipPath><mask id="c"><g filter="url(#a)"><path fill-opacity=".6" d="M-37.5 -37.5H412.5V412.5H-37.5z"/></g></mask><mask id="f"><g filter="url(#a)"><path fill-opacity=".31" d="M-37.5 -37.5H412.5V412.5H-37.5z"/></g></mask><mask id="i"><g filter="url(#a)"><path fill-opacity=".149" d="M-37.5 -37.5H412.5V412.5H-37.5z"/></g></mask><filter x="0%" y="0%" width="100%" xmlns:xlink="http://www.w3.org/1999/xlink" xlink:type="simple" xlink:actuate="onLoad" height="100%" id="a" xlink:show="other"><feColorMatrix values="0 0 0 0 1 0 0 0 0 1 0 0 0 0 1 0 0 0 1 0" color-interpolation-filters="sRGB"/></filter></defs><path fill="#FFF" d="M-37.5 -37.5H412.5V412.5H-37.5z"/><path fill="#FFF" d="M-37.5 -37.5H412.5V412.5H-37.5z"/><path fill="#FFFAFA" d="M-37.5 -37.5H412.5V412.5H-37.5z"/><g clip-path="url(#b)"><path fill="#6688C1" d="M 258.417969 218.066406 L 258.417969 218.0625 L 190.21875 103.621094 L 190.183594 103.617188 C 188.898438 101.398438 186.523438 99.890625 183.773438 99.890625 C 181.304688 99.890625 179.132812 101.101562 177.78125 102.949219 L 177.761719 102.949219 L 177.71875 103.027344 C 177.464844 103.378906 177.253906 103.753906 177.066406 104.148438 L 111.214844 218.113281 L 111.214844 218.117188 C 110.425781 219.292969 109.960938 220.707031 109.960938 222.234375 C 109.960938 226.328125 113.289062 229.648438 117.394531 229.648438 L 252.273438 229.648438 C 256.378906 229.648438 259.707031 226.328125 259.707031 222.234375 C 259.707031 220.6875 259.230469 219.253906 258.417969 218.066406 Z M 258.417969 218.066406"/></g><path stroke-linecap="round" transform="matrix(-2.42178 4.26637 -4.4848 -2.54577 236.965 126.73)" fill="none" d="M 0.500132 -0.000007859 L 21.4233 0.000121661" stroke="#000"/><g mask="url(#c)"><g><g clip-path="url(#d)" transform="translate(179 117)"><g clip-path="url(#e)"><path stroke-linecap="round" transform="matrix(-1.70076 4.60156 -4.83715 -1.78784 42.355 2.787)" fill="none" d="M 0.499721 0.000310107 L 21.423334 0.000290864" stroke="#000"/></g></g></g></g><g mask="url(#f)"><g><g clip-path="url(#g)" transform="translate(179 113)"><g clip-path="url(#h)"><path stroke-linecap="round" transform="matrix(-.83999 4.83336 -5.08082 -.883 23.65 1.783)" fill="none" d="M 0.499925 -0.000212844 L 21.423147 0.000357142" stroke="#000"/></g></g></g></g><g mask="url(#i)"><g><g clip-path="url(#j)" transform="translate(179 114)"><path stroke-linecap="round" transform="matrix(0 4.9058 -5.15698 0 5.33 .036)" fill="none" d="M 0.499826 -0.000309199 L 21.422903 -0.000309199" stroke="#000"/></g></g></g><g fill="#2A2E30"><g><g><path d="M 2.445312 0.0703125 L 2.914062 0 L 3.832031 0.046875 L 4.347656 -0.0234375 L 5.097656 0.0234375 L 5.757812 -0.257812 L 6.039062 -0.679688 L 5.96875 -3.148438 L 6.039062 -3.878906 L 6.015625 -4.371094 L 6.0625 -5.214844 L 6.015625 -5.734375 L 6.015625 -6.648438 L 6.226562 -6.859375 L 6.460938 -6.765625 L 6.835938 -6.460938 L 7.121094 -6.109375 L 8.082031 -5.144531 L 8.386719 -4.769531 L 9.023438 -4.160156 L 9.515625 -3.804688 L 10.035156 -3.78125 L 10.503906 -4.136719 L 10.832031 -4.488281 L 11.113281 -4.769531 L 11.773438 -5.546875 L 12.101562 -5.78125 L 13.066406 -6.765625 L 13.371094 -6.910156 L 13.558594 -6.554688 L 13.511719 -5.261719 L 13.582031 -4.324219 L 13.535156 -3.40625 L 13.582031 -2.539062 L 13.535156 -2.113281 L 13.582031 -1.058594 L 13.582031 -0.703125 L 13.769531 -0.164062 L 14.261719 -0.0234375 L 17.105469 0.0703125 L 17.601562 -0.1875 L 17.882812 -0.871094 L 17.8125 -2.089844 L 17.859375 -2.5625 L 17.8125 -9.609375 L 17.859375 -10.128906 L 17.835938 -12.453125 L 17.859375 -12.898438 L 17.8125 -13.910156 L 17.835938 -14.308594 L 17.8125 -15.273438 L 17.859375 -15.71875 L 17.574219 -16.214844 L 17.082031 -16.472656 L 16.402344 -16.261719 L 15.90625 -15.953125 L 14.921875 -14.921875 L 14.617188 -14.546875 L 14.332031 -14.285156 L 14.003906 -13.863281 L 11.9375 -11.75 L 11.632812 -11.347656 L 10.199219 -9.890625 L 9.773438 -9.609375 L 9.28125 -9.796875 L 9 -10.199219 L 8.671875 -10.527344 L 8.246094 -11.066406 L 7.730469 -11.539062 L 5.59375 -13.910156 L 5.261719 -14.191406 L 4.652344 -14.921875 L 4.277344 -15.25 L 3.664062 -15.882812 L 3.125 -16.285156 L 2.46875 -16.472656 L 1.949219 -16.238281 L 1.691406 -15.742188 L 1.761719 -14.308594 L 1.691406 -13.394531 L 1.738281 -12.96875 L 1.714844 -9.210938 L 1.761719 -8.742188 L 1.691406 -6.367188 L 1.738281 -5.921875 L 1.714844 -0.726562 L 1.972656 -0.234375 Z M 2.445312 0.0703125" transform="translate(112.944 269.21)"/></g></g></g><g fill="#2A2E30"><g><g><path d="M 8.175781 0.0703125 L 11.539062 0.0234375 L 12.03125 -0.1875 L 12.289062 -0.679688 L 12.289062 -3.054688 L 12.03125 -3.523438 L 11.539062 -3.734375 L 10.996094 -3.6875 L 10.550781 -3.757812 L 9.351562 -3.78125 L 8.578125 -3.6875 L 8.105469 -3.734375 L 7.589844 -3.710938 L 7.144531 -3.78125 L 6.625 -3.734375 L 6.132812 -3.972656 L 5.945312 -4.394531 L 5.945312 -5.875 L 6.15625 -6.367188 L 6.578125 -6.625 L 7.285156 -6.648438 L 8.035156 -6.578125 L 8.929688 -6.625 L 9.890625 -6.601562 L 10.363281 -6.648438 L 10.902344 -6.625 L 11.371094 -6.8125 L 11.539062 -7.285156 L 11.609375 -9.398438 L 11.371094 -10.058594 L 10.832031 -10.363281 L 9.445312 -10.363281 L 8.953125 -10.316406 L 7.964844 -10.386719 L 6.601562 -10.339844 L 6.109375 -10.550781 L 5.921875 -11.277344 L 5.921875 -12.007812 L 6.132812 -12.453125 L 6.648438 -12.640625 L 7.097656 -12.617188 L 7.542969 -12.710938 L 10.902344 -12.664062 L 11.347656 -12.6875 L 11.84375 -12.96875 L 12.078125 -13.394531 L 12.054688 -13.863281 L 12.078125 -14.332031 L 12.03125 -15.742188 L 11.820312 -16.191406 L 11.347656 -16.378906 L 10.855469 -16.378906 L 10.433594 -16.472656 L 8.53125 -16.449219 L 8.011719 -16.402344 L 7.542969 -16.449219 L 7.144531 -16.425781 L 6.671875 -16.472656 L 4.746094 -16.425781 L 4.277344 -16.496094 L 3.832031 -16.402344 L 3.40625 -16.449219 L 2.9375 -16.402344 L 2.46875 -16.425781 L 1.972656 -16.238281 L 1.714844 -15.742188 L 1.761719 -14.851562 L 1.691406 -13.886719 L 1.761719 -13.371094 L 1.714844 -11.066406 L 1.785156 -10.574219 L 1.738281 -10.128906 L 1.714844 -8.199219 L 1.785156 -7.777344 L 1.761719 -3.972656 L 1.714844 -3.523438 L 1.785156 -3.054688 L 1.714844 -1.433594 L 1.761719 -0.917969 L 1.949219 -0.28125 L 2.65625 0.0234375 L 4.347656 0.046875 L 4.863281 0 L 5.285156 0.0234375 L 6.25 -0.046875 L 6.695312 0.046875 L 7.238281 0.0703125 L 7.707031 0.0234375 Z M 8.175781 0.0703125" transform="translate(134.232 269.21)"/></g></g></g><g fill="#2A2E30"><g><g><path d="M 6.132812 0.046875 L 7.707031 0 L 8.386719 -0.234375 L 8.625 -0.894531 L 8.695312 -2.113281 L 8.625 -3.007812 L 8.671875 -3.5 L 8.648438 -4.441406 L 8.695312 -4.863281 L 8.625 -5.382812 L 8.671875 -9.164062 L 8.601562 -9.65625 L 8.671875 -11.703125 L 8.859375 -12.40625 L 9.304688 -12.6875 L 10.222656 -12.734375 L 11.089844 -12.617188 L 11.585938 -12.6875 L 12.007812 -12.664062 L 12.40625 -12.921875 L 12.6875 -13.441406 L 12.710938 -15.671875 L 12.453125 -16.144531 L 12.007812 -16.449219 L 10.550781 -16.449219 L 10.105469 -16.496094 L 9.609375 -16.425781 L 9.164062 -16.472656 L 7.261719 -16.378906 L 6.789062 -16.472656 L 6.34375 -16.496094 L 5.851562 -16.425781 L 5.332031 -16.472656 L 4.910156 -16.378906 L 3.523438 -16.449219 L 2.796875 -16.378906 L 1.152344 -16.472656 L 0.703125 -16.238281 L 0.421875 -15.695312 L 0.445312 -15.226562 L 0.398438 -14.050781 L 0.445312 -13.324219 L 0.65625 -12.898438 L 1.082031 -12.664062 L 1.550781 -12.710938 L 3.78125 -12.664062 L 4.230469 -12.429688 L 4.488281 -11.960938 L 4.441406 -11.207031 L 4.488281 -10.550781 L 4.464844 -10.035156 L 4.488281 -9.5625 L 4.441406 -8.90625 L 4.511719 -5.40625 L 4.464844 -4.933594 L 4.441406 -3.03125 L 4.488281 -2.539062 L 4.464844 -1.175781 L 4.417969 -0.726562 L 4.722656 -0.210938 L 5.40625 0.0234375 Z M 6.132812 0.046875" transform="translate(149.34 269.21)"/></g></g></g><g fill="#2A2E30"><g><g><path d="M 1.761719 -0.964844 L 1.996094 -0.234375 L 2.679688 0.0703125 L 3.148438 0 L 3.902344 0.0703125 L 4.277344 0.0234375 L 4.980469 0.0234375 L 5.734375 -0.210938 L 5.945312 -0.894531 L 5.945312 -1.691406 L 5.992188 -2.113281 L 5.921875 -2.609375 L 5.96875 -4.113281 L 6.179688 -4.582031 L 6.625 -4.839844 L 7.988281 -4.652344 L 8.460938 -4.253906 L 8.742188 -3.78125 L 8.929688 -3.359375 L 9.421875 -2.65625 L 9.867188 -1.808594 L 10.128906 -1.457031 L 10.316406 -0.988281 L 10.574219 -0.585938 L 11.089844 -0.164062 L 11.890625 0.046875 L 13.746094 0.0234375 L 14.191406 0.0703125 L 14.96875 0.046875 L 15.414062 -0.164062 L 15.554688 -0.679688 L 15.296875 -1.199219 L 15.015625 -1.527344 L 14.828125 -1.972656 L 14.027344 -3.171875 L 13.816406 -3.59375 L 13.066406 -4.816406 L 12.78125 -5.167969 L 12.757812 -5.734375 L 12.96875 -6.25 L 13.300781 -6.601562 L 13.628906 -6.886719 L 14.546875 -8.53125 L 14.851562 -9.890625 L 14.804688 -11.371094 L 14.734375 -11.84375 L 14.308594 -13.183594 L 14.121094 -13.582031 L 13.863281 -13.957031 L 12.523438 -15.367188 L 11.703125 -15.8125 L 10.808594 -16.121094 L 9.46875 -16.425781 L 8.71875 -16.449219 L 8.035156 -16.402344 L 6.625 -16.402344 L 6.15625 -16.496094 L 5.6875 -16.496094 L 5.261719 -16.378906 L 4.792969 -16.378906 L 4.324219 -16.472656 L 3.804688 -16.496094 L 2.421875 -16.378906 L 1.996094 -16.144531 L 1.714844 -15.484375 L 1.738281 -10.105469 L 1.785156 -9.632812 L 1.714844 -8.695312 L 1.738281 -8.175781 L 1.738281 -7.707031 L 1.785156 -7.261719 L 1.738281 -6.8125 L 1.714844 -4.910156 L 1.761719 -4.441406 Z M 6.625 -8.601562 L 6.15625 -8.859375 L 5.96875 -9.234375 L 5.96875 -10.644531 L 5.921875 -11.042969 L 5.96875 -12.03125 L 6.179688 -12.476562 L 6.671875 -12.664062 L 7.144531 -12.640625 L 8.082031 -12.734375 L 8.742188 -12.59375 L 9.351562 -12.546875 L 9.796875 -12.429688 L 10.386719 -11.703125 L 10.527344 -11.324219 L 10.621094 -10.714844 L 10.550781 -10.011719 L 10.339844 -9.539062 L 10.082031 -9.1875 L 9.820312 -8.976562 L 9.398438 -8.789062 L 8.71875 -8.625 L 8.269531 -8.601562 L 7.144531 -8.648438 Z M 6.625 -8.601562" transform="translate(164.12 269.21)"/></g></g></g><g fill="#2A2E30"><g><g><path d="M 9.421875 0.304688 L 11.515625 0.09375 L 12.40625 -0.1875 L 14.496094 -1.128906 L 16.144531 -2.703125 L 16.449219 -3.125 L 17.363281 -4.746094 L 17.527344 -5.191406 L 17.601562 -5.664062 L 17.742188 -6.039062 L 17.835938 -6.554688 L 17.953125 -8.199219 L 17.835938 -9.820312 L 17.648438 -10.691406 L 17.457031 -11.183594 L 17.339844 -11.726562 L 16.917969 -12.5 L 16.753906 -12.921875 L 16.449219 -13.324219 L 16.167969 -13.605469 L 15.859375 -14.027344 L 14.851562 -14.945312 L 13.652344 -15.695312 L 10.574219 -16.660156 L 9.46875 -16.683594 L 7.824219 -16.589844 L 7.355469 -16.496094 L 6.886719 -16.355469 L 6.460938 -16.167969 L 5.570312 -15.929688 L 4.371094 -15.179688 L 4.042969 -14.898438 L 3.289062 -14.378906 L 2.65625 -13.675781 L 1.855469 -12.5 L 1.644531 -12.101562 L 1.199219 -10.808594 L 1.011719 -9.796875 L 0.917969 -7.074219 L 1.175781 -5.59375 L 1.527344 -4.792969 L 1.667969 -4.300781 L 1.902344 -3.878906 L 3.007812 -2.375 L 3.664062 -1.738281 L 3.972656 -1.386719 L 5.570312 -0.539062 L 6.015625 -0.351562 L 8.011719 0.234375 Z M 8.765625 -3.832031 L 8.292969 -3.996094 L 7.871094 -4.042969 L 7.074219 -4.464844 L 6.34375 -5.097656 L 6.109375 -5.429688 L 5.804688 -5.757812 L 5.359375 -7.074219 L 5.238281 -8.246094 L 5.261719 -8.953125 L 5.429688 -9.820312 L 5.570312 -10.246094 L 5.851562 -10.574219 L 6.0625 -10.972656 L 6.367188 -11.347656 L 6.71875 -11.65625 L 7.402344 -12.125 L 7.824219 -12.335938 L 8.316406 -12.453125 L 9.398438 -12.546875 L 10.527344 -12.476562 L 11.773438 -11.9375 L 12.5 -11.394531 L 13.042969 -10.597656 L 13.230469 -10.175781 L 13.371094 -9.703125 L 13.535156 -9.28125 L 13.628906 -8.269531 L 13.488281 -7.097656 L 13.277344 -6.132812 L 13.019531 -5.78125 L 12.804688 -5.429688 L 12.523438 -5.003906 L 11.796875 -4.441406 L 11.371094 -4.253906 L 10.996094 -4.042969 L 10.574219 -3.996094 L 10.128906 -3.878906 Z M 8.765625 -3.832031" transform="translate(182.071 269.21)"/></g></g></g><g fill="#2A2E30"><g><g><path d="M 13.863281 -0.398438 L 14.496094 -0.0234375 L 15.15625 0.046875 L 15.671875 -0.117188 L 15.90625 -0.585938 L 15.953125 -9.164062 L 15.882812 -9.5625 L 15.882812 -11.890625 L 15.953125 -12.453125 L 15.882812 -15.71875 L 15.648438 -16.191406 L 15.179688 -16.449219 L 12.265625 -16.425781 L 11.820312 -16.167969 L 11.5625 -15.671875 L 11.539062 -15.179688 L 11.609375 -14.804688 L 11.539062 -13.816406 L 11.585938 -13.300781 L 11.539062 -9.09375 L 11.394531 -8.695312 L 11.042969 -8.859375 L 9.375 -10.527344 L 8.71875 -11.042969 L 4.089844 -15.71875 L 3.734375 -16 L 3.195312 -16.285156 L 2.492188 -16.449219 L 1.949219 -16.214844 L 1.738281 -15.765625 L 1.738281 -8.648438 L 1.714844 -8.246094 L 1.761719 -7.285156 L 1.691406 -6.886719 L 1.738281 -3.03125 L 1.691406 -2.585938 L 1.738281 -0.609375 L 1.949219 -0.164062 L 2.445312 0 L 3.40625 0.046875 L 3.925781 0 L 4.839844 0.0703125 L 5.332031 0.046875 L 5.804688 -0.1875 L 6.039062 -0.917969 L 6.0625 -6.859375 L 6.109375 -7.332031 L 6.273438 -7.730469 L 6.578125 -7.613281 L 6.886719 -7.214844 L 8.554688 -5.617188 L 8.859375 -5.261719 L 9.257812 -5.003906 L 12.898438 -1.386719 L 13.511719 -0.703125 Z M 13.863281 -0.398438" transform="translate(202.56 269.21)"/></g></g></g><g fill="#2A2E30"><g><g><path d="M 9.421875 0.304688 L 11.515625 0.09375 L 12.40625 -0.1875 L 14.496094 -1.128906 L 16.144531 -2.703125 L 16.449219 -3.125 L 17.363281 -4.746094 L 17.527344 -5.191406 L 17.601562 -5.664062 L 17.742188 -6.039062 L 17.835938 -6.554688 L 17.953125 -8.199219 L 17.835938 -9.820312 L 17.648438 -10.691406 L 17.457031 -11.183594 L 17.339844 -11.726562 L 16.917969 -12.5 L 16.753906 -12.921875 L 16.449219 -13.324219 L 16.167969 -13.605469 L 15.859375 -14.027344 L 14.851562 -14.945312 L 13.652344 -15.695312 L 10.574219 -16.660156 L 9.46875 -16.683594 L 7.824219 -16.589844 L 7.355469 -16.496094 L 6.886719 -16.355469 L 6.460938 -16.167969 L 5.570312 -15.929688 L 4.371094 -15.179688 L 4.042969 -14.898438 L 3.289062 -14.378906 L 2.65625 -13.675781 L 1.855469 -12.5 L 1.644531 -12.101562 L 1.199219 -10.808594 L 1.011719 -9.796875 L 0.917969 -7.074219 L 1.175781 -5.59375 L 1.527344 -4.792969 L 1.667969 -4.300781 L 1.902344 -3.878906 L 3.007812 -2.375 L 3.664062 -1.738281 L 3.972656 -1.386719 L 5.570312 -0.539062 L 6.015625 -0.351562 L 8.011719 0.234375 Z M 8.765625 -3.832031 L 8.292969 -3.996094 L 7.871094 -4.042969 L 7.074219 -4.464844 L 6.34375 -5.097656 L 6.109375 -5.429688 L 5.804688 -5.757812 L 5.359375 -7.074219 L 5.238281 -8.246094 L 5.261719 -8.953125 L 5.429688 -9.820312 L 5.570312 -10.246094 L 5.851562 -10.574219 L 6.0625 -10.972656 L 6.367188 -11.347656 L 6.71875 -11.65625 L 7.402344 -12.125 L 7.824219 -12.335938 L 8.316406 -12.453125 L 9.398438 -12.546875 L 10.527344 -12.476562 L 11.773438 -11.9375 L 12.5 -11.394531 L 13.042969 -10.597656 L 13.230469 -10.175781 L 13.371094 -9.703125 L 13.535156 -9.28125 L 13.628906 -8.269531 L 13.488281 -7.097656 L 13.277344 -6.132812 L 13.019531 -5.78125 L 12.804688 -5.429688 L 12.523438 -5.003906 L 11.796875 -4.441406 L 11.371094 -4.253906 L 10.996094 -4.042969 L 10.574219 -3.996094 L 10.128906 -3.878906 Z M 8.765625 -3.832031" transform="translate(221.921 269.21)"/></g></g></g><g fill="#2A2E30"><g><g><path d="M 2.445312 0.0703125 L 2.914062 0 L 3.832031 0.046875 L 4.347656 -0.0234375 L 5.097656 0.0234375 L 5.757812 -0.257812 L 6.039062 -0.679688 L 5.96875 -3.148438 L 6.039062 -3.878906 L 6.015625 -4.371094 L 6.0625 -5.214844 L 6.015625 -5.734375 L 6.015625 -6.648438 L 6.226562 -6.859375 L 6.460938 -6.765625 L 6.835938 -6.460938 L 7.121094 -6.109375 L 8.082031 -5.144531 L 8.386719 -4.769531 L 9.023438 -4.160156 L 9.515625 -3.804688 L 10.035156 -3.78125 L 10.503906 -4.136719 L 10.832031 -4.488281 L 11.113281 -4.769531 L 11.773438 -5.546875 L 12.101562 -5.78125 L 13.066406 -6.765625 L 13.371094 -6.910156 L 13.558594 -6.554688 L 13.511719 -5.261719 L 13.582031 -4.324219 L 13.535156 -3.40625 L 13.582031 -2.539062 L 13.535156 -2.113281 L 13.582031 -1.058594 L 13.582031 -0.703125 L 13.769531 -0.164062 L 14.261719 -0.0234375 L 17.105469 0.0703125 L 17.601562 -0.1875 L 17.882812 -0.871094 L 17.8125 -2.089844 L 17.859375 -2.5625 L 17.8125 -9.609375 L 17.859375 -10.128906 L 17.835938 -12.453125 L 17.859375 -12.898438 L 17.8125 -13.910156 L 17.835938 -14.308594 L 17.8125 -15.273438 L 17.859375 -15.71875 L 17.574219 -16.214844 L 17.082031 -16.472656 L 16.402344 -16.261719 L 15.90625 -15.953125 L 14.921875 -14.921875 L 14.617188 -14.546875 L 14.332031 -14.285156 L 14.003906 -13.863281 L 11.9375 -11.75 L 11.632812 -11.347656 L 10.199219 -9.890625 L 9.773438 -9.609375 L 9.28125 -9.796875 L 9 -10.199219 L 8.671875 -10.527344 L 8.246094 -11.066406 L 7.730469 -11.539062 L 5.59375 -13.910156 L 5.261719 -14.191406 L 4.652344 -14.921875 L 4.277344 -15.25 L 3.664062 -15.882812 L 3.125 -16.285156 L 2.46875 -16.472656 L 1.949219 -16.238281 L 1.691406 -15.742188 L 1.761719 -14.308594 L 1.691406 -13.394531 L 1.738281 -12.96875 L 1.714844 -9.210938 L 1.761719 -8.742188 L 1.691406 -6.367188 L 1.738281 -5.921875 L 1.714844 -0.726562 L 1.972656 -0.234375 Z M 2.445312 0.0703125" transform="translate(242.41 269.21)"/></g></g></g></svg>